<?xml version="1.0" encoding="utf-8"?>
<!-- Generator: Adobe Illustrator 19.2.1, SVG Export Plug-In . SVG Version: 6.00 Build 0)  -->
<svg version="1.1" id="Capa_1" xmlns="http://www.w3.org/2000/svg" xmlns:xlink="http://www.w3.org/1999/xlink" x="0px" y="0px"
	 viewBox="0 0 345 256" style="enable-background:new 0 0 345 256;" xml:space="preserve">
<g>
	<path d="M61.2,155.8H82c1.8,5.7,4,11.2,6.8,16.5L74.1,187c-6.5,6.5-6.5,17.1,0,23.6l15.7,15.8c6.5,6.5,17.1,6.5,23.6,0l14.7-14.7
		c5.2,2.8,10.8,5.1,16.5,6.8v20.8c0,9.2,7.5,16.7,16.7,16.7h22.3c9.2,0,16.7-7.5,16.7-16.7v-20.8c5.7-1.8,11.2-4,16.5-6.8l14.7,14.7
		c6.3,6.3,17.3,6.3,23.6,0l15.7-15.7c3.1-3.1,4.9-7.3,4.9-11.8c0-4.5-1.7-8.7-4.9-11.8l-14.7-14.7c2.8-5.2,5.1-10.8,6.8-16.5h20.8
		c9.2,0,16.7-7.5,16.7-16.7v-22.3c0-9.2-7.5-16.7-16.7-16.7H263c-1.7-5.7-4-11.2-6.8-16.5L270.9,69c3.1-3.1,4.9-7.3,4.9-11.8
		c0-4.5-1.7-8.7-4.9-11.8l-15.7-15.7c-6.3-6.3-17.3-6.3-23.6,0l-14.7,14.7c-5.2-2.8-10.8-5.1-16.5-6.8V16.7
		c0-9.2-7.5-16.7-16.7-16.7h-22.3c-9.2,0-16.7,7.5-16.7,16.7v20.8c-5.7,1.8-11.2,4-16.5,6.8l-14.7-14.7c-6.5-6.5-17.1-6.5-23.6,0
		L74.1,45.4c-6.5,6.5-6.5,17.1,0,23.6l14.7,14.7c-2.8,5.2-5.1,10.8-6.8,16.5H61.2c-9.2,0-16.7,7.5-16.7,16.7v22.3
		C44.5,148.3,52,155.8,61.2,155.8z M55.6,116.9c0-3.1,2.5-5.6,5.6-5.6h25c2.5,0,4.8-1.7,5.4-4.2c2-7.6,5-14.8,8.9-21.5
		c1.3-2.2,0.9-5-0.9-6.8L82,61.1c-2.2-2.2-2.2-5.7,0-7.9l15.7-15.7c2.2-2.2,5.7-2.2,7.9,0l17.7,17.7c1.8,1.8,4.6,2.2,6.8,0.9
		c6.7-4,13.9-7,21.5-8.9c2.5-0.6,4.2-2.8,4.2-5.4v-25c0-3.1,2.5-5.6,5.6-5.6h22.3c3.1,0,5.6,2.5,5.6,5.6v25c0,2.5,1.7,4.8,4.2,5.4
		c7.6,2,14.9,5,21.5,8.9c2.2,1.3,5,0.9,6.8-0.9l17.7-17.7c2.1-2.1,5.8-2.1,7.9,0L263,53.2c1,1,1.6,2.4,1.6,3.9s-0.6,2.9-1.6,3.9
		l-17.7,17.7c-1.8,1.8-2.1,4.6-0.9,6.8c4,6.7,7,13.9,8.9,21.5c0.6,2.5,2.8,4.2,5.4,4.2h25c3.1,0,5.6,2.5,5.6,5.6v22.3
		c0,3.1-2.5,5.6-5.6,5.6h-25c-2.5,0-4.8,1.7-5.4,4.2c-2,7.6-5,14.8-8.9,21.5c-1.3,2.2-0.9,5,0.9,6.8l17.7,17.7c1,1,1.6,2.4,1.6,3.9
		s-0.6,2.9-1.6,3.9l-15.7,15.7c-2.1,2.1-5.8,2.1-7.9,0l-17.7-17.7c-1.8-1.8-4.6-2.1-6.8-0.9c-6.7,4-13.9,7-21.5,8.9
		c-2.4,0.6-4.2,2.8-4.2,5.4v25c0,3.1-2.5,5.6-5.6,5.6h-22.3c-3.1,0-5.6-2.5-5.6-5.6v-25c0-2.5-1.7-4.8-4.2-5.4
		c-7.6-2-14.8-5-21.5-8.9c-0.9-0.5-1.9-0.8-2.8-0.8c-1.4,0-2.9,0.6-3.9,1.6l-17.7,17.7c-2.2,2.2-5.7,2.2-7.9,0L82,202.8
		c-2.2-2.2-2.2-5.7,0-7.9l17.7-17.7c1.8-1.8,2.1-4.6,0.9-6.8c-4-6.7-7-13.9-8.9-21.5c-0.6-2.5-2.8-4.2-5.4-4.2h-25
		c-3.1,0-5.6-2.5-5.6-5.6V116.9z"/>
	<path d="M172.5,178.1c27.6,0,50.1-22.5,50.1-50.1s-22.5-50.1-50.1-50.1c-27.6,0-50.1,22.5-50.1,50.1S144.9,178.1,172.5,178.1z
		 M172.5,89c21.5,0,39,17.5,39,39s-17.5,39-39,39c-21.5,0-39-17.5-39-39S151,89,172.5,89z"/>
</g>
</svg>
